<svg width="82" height="32" viewBox="0 0 82 32" fill="none" xmlns="http://www.w3.org/2000/svg">
<path d="M72.105 24.7871V9.21293H75.3732V22.0722H82V24.7871H72.105Z" fill="#343839"/>
<path d="M66.3305 14.2471C66.2249 13.8771 66.0764 13.5501 65.8852 13.2662C65.694 12.9772 65.46 12.7338 65.1833 12.5361C64.9116 12.3333 64.5996 12.1787 64.2474 12.0722C63.9002 11.9658 63.5153 11.9125 63.0926 11.9125C62.3026 11.9125 61.6082 12.1103 61.0094 12.5057C60.4157 12.9011 59.9528 13.4766 59.6207 14.2319C59.2886 14.9823 59.1225 15.8999 59.1225 16.9848C59.1225 18.0697 59.286 18.9924 59.6131 19.7529C59.9402 20.5133 60.4031 21.0938 61.0019 21.4943C61.6007 21.8897 62.3076 22.0875 63.1228 22.0875C63.8624 22.0875 64.4939 21.9556 65.0172 21.692C65.5456 21.4233 65.9481 21.0456 66.2249 20.5589C66.5066 20.0722 66.6475 19.4968 66.6475 18.8327L67.3117 18.9316H63.3266V16.4525H69.7949V18.4144C69.7949 19.7833 69.5081 20.9594 68.9345 21.943C68.3609 22.9214 67.5709 23.6768 66.5645 24.2091C65.5582 24.7364 64.4059 25 63.1077 25C61.6585 25 60.3855 24.6781 59.2886 24.0342C58.1916 23.3853 57.3362 22.4651 56.7224 21.2738C56.1135 20.0773 55.8091 18.6578 55.8091 17.0152C55.8091 15.7529 55.9902 14.6274 56.3525 13.6388C56.7198 12.6451 57.2331 11.8035 57.8922 11.1141C58.5514 10.4246 59.3188 9.89987 60.1943 9.53992C61.0698 9.17997 62.0183 9 63.0397 9C63.9153 9 64.7304 9.12928 65.4852 9.38783C66.24 9.64132 66.9092 10.0013 67.4929 10.4677C68.0816 10.9341 68.5621 11.4892 68.9345 12.1331C69.3068 12.7719 69.5458 13.4766 69.6515 14.2471H66.3305Z" fill="#343839"/>
<path d="M44.2282 9.21293L47.9642 21.0456H48.1076L51.8513 9.21293H55.4742L50.1455 24.7871H45.9339L40.5977 9.21293H44.2282Z" fill="#343839"/>
<path d="M32 24.7871V9.21293H35.2681V22.0722H41.895V24.7871H32Z" fill="#343839"/>
<path fill-rule="evenodd" clip-rule="evenodd" d="M2.76924 5C1.23984 5 1.31567e-05 6.23982 9.79524e-06 7.76922L1.63168e-06 11.4615C1.63168e-06 11.9713 0.413277 12.3846 0.923079 12.3846H6.46154C7.48114 12.3846 8.30769 13.2112 8.30769 14.2308V19.7692C8.30769 20.279 8.72097 20.6923 9.23077 20.6923H14.7692C15.7888 20.6923 16.6154 21.5189 16.6154 22.5385V28.0769C16.6154 28.5867 17.0287 29 17.5385 29H21.2308C22.7602 29 24 27.7602 24 26.2308V7.76923C24 6.23983 22.7602 5 21.2308 5H2.76924ZM20.7692 9.61538C21.5339 9.61538 22.1538 8.99547 22.1538 8.23077C22.1538 7.46607 21.5339 6.84615 20.7692 6.84615C20.0045 6.84615 19.3846 7.46607 19.3846 8.23077C19.3846 8.99547 20.0045 9.61538 20.7692 9.61538Z" fill="#343839"/>
<path d="M0.00011268 14.6308C0.00011268 14.121 0.413388 13.7077 0.92319 13.7077H6.06165C6.57145 13.7077 6.98473 14.121 6.98473 14.6308V19.7692C6.98473 20.279 6.57145 20.6923 6.06165 20.6923H0.923189C0.413387 20.6923 0.00011268 20.279 0.00011268 19.7692V14.6308Z" fill="#F35F20"/>
<path d="M0 22.9385C0 22.4287 0.413276 22.0154 0.923077 22.0154H6.06154C6.57134 22.0154 6.98462 22.4287 6.98462 22.9385V28.0769C6.98462 28.5867 6.57134 29 6.06154 29H2.76923C1.23983 29 0 27.7602 0 26.2308V22.9385Z" fill="#62D367"/>
<path d="M8.30771 22.9385C8.30771 22.4287 8.72098 22.0154 9.23078 22.0154H14.3692C14.879 22.0154 15.2923 22.4287 15.2923 22.9385V28.0769C15.2923 28.5867 14.879 29 14.3692 29H9.23078C8.72098 29 8.30771 28.5867 8.30771 28.0769V22.9385Z" fill="#3C65F8"/>
</svg>
