<svg width="84" height="32" viewBox="0 0 84 32" fill="none" xmlns="http://www.w3.org/2000/svg">
<path d="M74.1053 23.7871V8.21293H77.3734V21.0722H84.0002V23.7871H74.1053Z" fill="white"/>
<path d="M68.3308 13.2471C68.2251 12.8771 68.0767 12.5501 67.8855 12.2662C67.6943 11.9772 67.4603 11.7338 67.1835 11.5361C66.9118 11.3333 66.5998 11.1787 66.2476 11.0722C65.9004 10.9658 65.5155 10.9125 65.0928 10.9125C64.3028 10.9125 63.6085 11.1103 63.0097 11.5057C62.4159 11.9011 61.953 12.4766 61.6209 13.2319C61.2888 13.9823 61.1228 14.8999 61.1228 15.9848C61.1228 17.0697 61.2863 17.9924 61.6134 18.7529C61.9404 19.5133 62.4033 20.0938 63.0021 20.4943C63.6009 20.8897 64.3079 21.0875 65.123 21.0875C65.8627 21.0875 66.4942 20.9556 67.0175 20.692C67.5458 20.4233 67.9484 20.0456 68.2251 19.5589C68.5069 19.0722 68.6478 18.4968 68.6478 17.8327L69.312 17.9316H65.3268V15.4525H71.7952V17.4144C71.7952 18.7833 71.5083 19.9594 70.9347 20.943C70.3611 21.9214 69.5711 22.6768 68.5648 23.2091C67.5584 23.7364 66.4061 24 65.1079 24C63.6588 24 62.3857 23.6781 61.2888 23.0342C60.1919 22.3853 59.3365 21.4651 58.7226 20.2738C58.1138 19.0773 57.8093 17.6578 57.8093 16.0152C57.8093 14.7529 57.9905 13.6274 58.3528 12.6388C58.7201 11.6451 59.2333 10.8035 59.8925 10.1141C60.5516 9.42459 61.319 8.89987 62.1945 8.53992C63.0701 8.17997 64.0185 8 65.04 8C65.9155 8 66.7307 8.12928 67.4854 8.38783C68.2402 8.64132 68.9094 9.00127 69.4931 9.46768C70.0818 9.93409 70.5624 10.4892 70.9347 11.1331C71.3071 11.7719 71.5461 12.4766 71.6517 13.2471H68.3308Z" fill="white"/>
<path d="M46.2284 8.21293L49.9645 20.0456H50.1079L53.8515 8.21293H57.4744L52.1458 23.7871H47.9342L42.598 8.21293H46.2284Z" fill="white"/>
<path d="M34.0002 23.7871V8.21293H37.2684V21.0722H43.8952V23.7871H34.0002Z" fill="white"/>
<path fill-rule="evenodd" clip-rule="evenodd" d="M3.00001 3C1.34316 3 1.68366e-05 4.34314 1.3195e-05 5.99999L4.35114e-06 10C4.35114e-06 10.5523 0.447719 11 1 11H7C8.10457 11 9 11.8954 9 13V19C9 19.5523 9.44772 20 10 20H16C17.1046 20 18 20.8954 18 22V28C18 28.5523 18.4477 29 19 29H23C24.6569 29 26 27.6569 26 26V6C26 4.34315 24.6569 3 23 3H3.00001ZM22.5 8C23.3284 8 24 7.32843 24 6.5C24 5.67157 23.3284 5 22.5 5C21.6716 5 21 5.67157 21 6.5C21 7.32843 21.6716 8 22.5 8Z" fill="white"/>
<path d="M0.00012207 13C0.00012207 12.4477 0.447837 12 1.00012 12H7.00012C7.55241 12 8.00012 12.4477 8.00012 13V19C8.00012 19.5523 7.55241 20 7.00012 20H1.00012C0.447837 20 0.00012207 19.5523 0.00012207 19V13Z" fill="white"/>
<path d="M0 22C0 21.4477 0.447715 21 1 21H7C7.55228 21 8 21.4477 8 22V28C8 28.5523 7.55228 29 7 29H3C1.34315 29 0 27.6569 0 26V22Z" fill="white"/>
<path d="M9 22C9 21.4477 9.44771 21 10 21H16C16.5523 21 17 21.4477 17 22V28C17 28.5523 16.5523 29 16 29H10C9.44771 29 9 28.5523 9 28V22Z" fill="white"/>
</svg>
